<svg xmlns="http://www.w3.org/2000/svg" version="1.0" viewBox="0 0 1133.858 1133.858"><path fill="#ffab91" d="M327.95,577.192h-17.035v-17.035c0-2.187-1.774-3.959-3.96-3.959c-2.186,0-3.961,1.772-3.961,3.959v17.035 h-17.035c-2.184,0-3.958,1.773-3.958,3.961s1.774,3.96,3.958,3.96h17.035v17.036c0,2.186,1.775,3.959,3.961,3.959 c2.186,0,3.96-1.773,3.96-3.959v-17.036h17.035c2.187,0,3.961-1.772,3.961-3.96S330.136,577.192,327.95,577.192z"/><path fill="#ffab91" d="M245.541,499.933h-17.035v-17.036c0-2.187-1.774-3.958-3.96-3.958c-2.187,0-3.96,1.771-3.96,3.958v17.036 H203.55c-2.184,0-3.958,1.773-3.958,3.961c0,2.187,1.774,3.958,3.958,3.958h17.035v17.038c0,2.187,1.773,3.958,3.96,3.958 c2.186,0,3.96-1.771,3.96-3.958v-17.038h17.035c2.186,0,3.961-1.771,3.961-3.958C249.501,501.706,247.727,499.933,245.541,499.933z"/><path fill="#ffab91" d="M472.323,259.864h-17.034v-17.035c0-2.188-1.774-3.959-3.96-3.959c-2.187,0-3.961,1.771-3.961,3.959v17.035 h-17.035c-2.185,0-3.959,1.773-3.959,3.961c0,2.186,1.774,3.959,3.959,3.959h17.035v17.037c0,2.186,1.774,3.959,3.961,3.959 c2.186,0,3.96-1.773,3.96-3.959v-17.037h17.034c2.187,0,3.962-1.773,3.962-3.959C476.285,261.638,474.51,259.864,472.323,259.864z"/><path fill="#ffab91" d="M884.824,204.758h-17.036v-17.035c0-2.187-1.774-3.959-3.959-3.959c-2.188,0-3.961,1.772-3.961,3.959 v17.035h-17.035c-2.186,0-3.959,1.774-3.959,3.961c0,2.188,1.773,3.961,3.959,3.961h17.035v17.035c0,2.188,1.773,3.959,3.961,3.959 c2.185,0,3.959-1.771,3.959-3.959V212.68h17.036c2.186,0,3.961-1.773,3.961-3.961C888.785,206.532,887.01,204.758,884.824,204.758z"/><path fill="#ffab91" d="M1081.864,461.408h-17.034v-17.036c0-2.186-1.774-3.958-3.961-3.958c-2.186,0-3.959,1.772-3.959,3.958 v17.036h-17.034c-2.185,0-3.959,1.774-3.959,3.961s1.774,3.959,3.959,3.959h17.034v17.036c0,2.188,1.773,3.959,3.959,3.959 c2.187,0,3.961-1.771,3.961-3.959v-17.036h17.034c2.188,0,3.962-1.772,3.962-3.959S1084.052,461.408,1081.864,461.408z"/><path fill="#ffab91" d="M275.329,376.527h-7.791v-7.79c0-1.001-0.813-1.811-1.812-1.811c-1,0-1.812,0.81-1.812,1.811v7.79h-7.792 c-0.999,0-1.811,0.813-1.811,1.813s0.812,1.811,1.811,1.811h7.792v7.793c0,1,0.812,1.811,1.812,1.811c1,0,1.812-0.811,1.812-1.811 v-7.793h7.791c1,0,1.813-0.811,1.813-1.811S276.33,376.527,275.329,376.527z"/><path fill="#ffab91" d="M1070.474,376.527h-7.792v-7.79c0-1.001-0.812-1.811-1.813-1.811c-0.998,0-1.81,0.81-1.81,1.811v7.79 h-7.792c-0.999,0-1.811,0.813-1.811,1.813s0.812,1.811,1.811,1.811h7.792v7.793c0,1,0.812,1.811,1.81,1.811 c1.001,0,1.813-0.811,1.813-1.811v-7.793h7.792c0.999,0,1.813-0.811,1.813-1.811S1071.473,376.527,1070.474,376.527z"/><path fill="#ffe9de" d="M360.146,181.174h-7.791v-7.792c0-1-0.813-1.811-1.813-1.811s-1.811,0.811-1.811,1.811v7.792h-7.792 c-0.999,0-1.811,0.812-1.811,1.812s0.812,1.812,1.811,1.812h7.792v7.792c0,1.001,0.812,1.811,1.811,1.811s1.813-0.81,1.813-1.811 v-7.792h7.791c1,0,1.813-0.812,1.813-1.812S361.146,181.174,360.146,181.174z"/><path fill="#ffab91" d="M181.391,438.602h-7.792v-7.791c0-1.001-0.812-1.811-1.812-1.811s-1.811,0.81-1.811,1.811v7.791h-7.792 c-0.999,0-1.811,0.812-1.811,1.813s0.812,1.811,1.811,1.811h7.792v7.793c0,1.001,0.812,1.812,1.811,1.812s1.812-0.811,1.812-1.812 v-7.793h7.792c1,0,1.812-0.81,1.812-1.811S182.391,438.602,181.391,438.602z"/><path fill="#ffab91" d="M291.602,476.048h-7.791v-7.791c0-1.001-0.812-1.811-1.812-1.811c-1,0-1.811,0.81-1.811,1.811v7.791h-7.792 c-0.999,0-1.811,0.813-1.811,1.813c0,1,0.812,1.813,1.811,1.813h7.792v7.792c0,1,0.811,1.811,1.811,1.811 c1,0,1.812-0.811,1.812-1.811v-7.792h7.791c1.001,0,1.813-0.813,1.813-1.813C293.415,476.861,292.603,476.048,291.602,476.048z"/><path fill="#ffab91" d="M90.819,540.604h-7.792v-7.793c0-1.001-0.812-1.811-1.812-1.811c-1,0-1.811,0.81-1.811,1.811v7.793h-7.792 c-0.999,0-1.811,0.811-1.811,1.811c0,1.001,0.812,1.813,1.811,1.813h7.792v7.791c0,1.001,0.811,1.811,1.811,1.811 c1,0,1.812-0.81,1.812-1.811v-7.791h7.792c1,0,1.812-0.812,1.812-1.813C92.631,541.415,91.819,540.604,90.819,540.604z"/><path fill="#ffab91" d="M239.609,604.296h-7.792v-7.792c0-1-0.812-1.811-1.812-1.811s-1.811,0.811-1.811,1.811v7.792h-7.792 c-0.999,0-1.811,0.813-1.811,1.813c0,0.999,0.812,1.811,1.811,1.811h7.792v7.792c0,1.001,0.812,1.812,1.811,1.812 s1.812-0.811,1.812-1.812v-7.792h7.792c1,0,1.812-0.812,1.812-1.811C241.421,605.108,240.609,604.296,239.609,604.296z"/><path fill="#000200" d="M717.898,262.458c-9.203,0-16.69-7.487-16.69-16.691c0-9.203,7.487-16.69,16.69-16.69 c9.204,0,16.69,7.487,16.69,16.69C734.589,254.971,727.103,262.458,717.898,262.458z M717.898,231.575 c-7.824,0-14.191,6.365-14.191,14.191c0,7.825,6.367,14.191,14.191,14.191c7.825,0,14.191-6.366,14.191-14.191 C732.09,237.94,725.724,231.575,717.898,231.575z"/><path fill="#ffe9de" d="M832.875,300.836c-6.523,9.034-21.394,24.178-48.383,32.613c-30.142-9.797-48.284-42.573-55.02-57.093 c9.472,2.512,16.083,6.322,16.083,6.322s0-11.446,0-13.357c-1.062-0.325-1.975-0.813-2.775-1.362 c-2.099-1.475-3.461-3.398-5.135-3.812c-0.825-0.387-1.586-0.362-2.337,0.387c-3.15,1.751-11.621,1.525-11.621,1.525 s0.961-6.172,0.237-11.384c-0.413-2.937-8.335-9.784-9.421-10.708c16.593-7.148,43.509-20.006,47.72-29.765 c3.2,0.036,7.922-0.825,12.658-5.086c8.335-7.498,10.535-20.655,19.156-12.159c8.635,8.498,2.499,27.991-3.324,27.153 c-4.898-0.7,6.073,8.772,10.271,16.707c0,0,0,0,0,0.013c0.801,12.857,6.948,50.758,6.948,50.758s0,0,12.721,3.824 C823.89,296.386,828.151,298.3,832.875,300.836z"/><path fill="#fb5b53" d="M1004.828,871.489c-18.431,26.503-49.696,38.636-75.837,44.147v0.013c-24.94,5.271-45.21,4.535-45.21,4.535 c-27.989-37.112-51.069-74.088-66.102-99.716c-12.158-20.729-19.056-34.051-19.056-34.051s-35.613-143.075,6.248-153.071 c1.137-0.276,2.286-0.502,3.462-0.701c15.368-2.561,34.412,1.013,52.443,6.624c31.714,9.846,60.304,25.94,60.304,25.94 l17.269,42.535L1004.828,871.489z"/><path fill="#fb5b53" d="M745.556,885.134c-20.73,27.604-126.645,15.682-208.616-57.543c-15.846-25.153-27.777-50.657-37-73.9 c0,0,59.279-44.496,107.3-36.562h0.014l48.92,37.425l-3.711-122.545c31.564,23.829,99.029,74.148,114.311,80.685 C786.891,721.303,769.971,852.646,745.556,885.134z"/><path fill="#000200" d="M607.239,717.129c-48.021-7.935-107.3,36.562-107.3,36.562c-19.081-48.069-26.578-86.482-33.076-92.229 c-16.244-14.37-59.979-48.108-48.733-71.226s72.476,2.499,108.088,19.992c35.612,17.495,29.365,47.484,28.115,53.107 c-1.249,5.624,7.497,19.057,7.497,19.057L607.239,717.129z"/><path fill="#000200" d="M989.809,1028.21c-38.524-26.229-75.249-67.203-106.027-108.025c0,0,85.021,3.086,121.047-48.695 l34.963,86.119c0,0,68.726,34.363,79.348,54.357C1129.76,1031.958,1091.648,1097.561,989.809,1028.21z"/><path fill="#c2232a" d="M828.613,676.456c-2.861,44.534,2.711,94.454-10.934,144.013c-13.146,47.772-44.147,95.206-117.771,137.14 c-79.048-25.678-129.656-77.086-162.969-130.018c81.972,73.225,187.886,85.146,208.616,57.543 c24.415-32.488,41.335-163.831,21.217-172.44c-15.281-6.536-82.746-56.855-114.311-80.685l-0.425-13.92l101.352-5.923 c20.931,3.55,40.85,9.809,54.945,20.479C821.729,642.794,829.875,656.911,828.613,676.456z"/><path fill="#ffe9de" d="M1054.711,345.895c-3.724,3.648-11.033,6.262-16.42,7.798c-1.862,7.947-7.385,15.032-12.071,21.269 c-5.723,7.646-11.446,5.097-31.813,49.646c-20.368,44.545-49.009,89.105-49.009,89.105l-83.51-32.451 c9.709-17.644,21.432-36.676,29.403-49.309c0.824,6.484,1.288,10.473,1.288,10.473s-2.551,8.908,6.997-11.46 c9.547-20.354,61.729-80.185,71.274-92.918c3.437-4.585,6.547-9.008,9.959-12.933c0.05-0.05,0.101-0.113,0.164-0.188 c2.812-3.611,16.73-32.413,36.323-48.334c19.994-16.243,32.871-24.129,36.238-21.242c3.366,2.887-15.869,24.317-28.739,39.986 c-0.851,1.037-1.663,2.086-2.449,3.161c6.784-5.723,14.207-10.771,16.605-8.159c1.962,2.137,2.162,8.747,0.438,16.156 c7.935-5.997,18.943-11.958,14.145,8.211c-0.2,0.849-0.425,1.674-0.675,2.486c6.359-1.125,4.649,8.311,1.85,15.595 C1064.62,328.375,1061.033,339.696,1054.711,345.895z"/><path fill="#008080" d="M938.235,577.266c-37.038,10.62-27.329,47.657-17.633,58.242c-11.433,2.961-21.267,14.957-26.028,31.176 c-3.61,12.335-4.299,27.092-0.537,42.199l-452.27-166.367c0,0-0.138-0.462-0.388-1.35c-0.725-2.7-2.311-9.335-3.46-19.106 c-1.4-12.021-2.125-28.777,0.324-48.783c4.174-34.302,17.644-78.162,52.844-124.044c1.824-2.388,3.712-4.774,5.661-7.173 l13.457,5.086l464.003,175.176C960.052,528.169,932.261,544.077,938.235,577.266z"/><path fill="#000200" d="M894.037,708.883l-452.27-166.367c0,0-0.138-0.462-0.388-1.35c-0.725-2.7-2.311-9.335-3.46-19.106 c-1.4-12.021-2.125-28.777,0.324-48.783c8.422,18.993,23.43,40.511,49.895,52.194c50.946,22.455,350.668,120.183,406.436,141.213 C890.964,679.019,890.275,693.775,894.037,708.883z"/><path fill="#000200" d="M891.292,431.952c-7.972,12.633-19.694,31.665-29.403,49.309l-116.333-45.196c0,0-8.311-2.899-19.758-6.999 c0.825-21.23,3.85-43.284,3.85-43.284l-14.632-33.725c0,0-54.907-9.561-54.92-5.162c0-5.148,0.052-9.072,0.188-10.747 c0.625-7.647,3.811-34.374,28.003-53.469c13.37-10.559,29.465-9.434,41.186-6.322c6.735,14.52,24.878,47.296,55.02,57.093 c26.989-8.436,41.859-23.579,48.383-32.613c13.846,7.46,31.577,20.253,38.698,30.214 C879.195,341.722,888.03,406.313,891.292,431.952z"/><path fill="#000200" d="M807.934,177.665c-5.974,3.1-11.723,6.436-16.721,9.372c18.495,18.419,10.348,43.522,9.724,50.457 c-0.063,0.711-0.039,1.862,0.049,3.324c-4.198-7.935-15.17-17.407-10.271-16.707c5.823,0.838,11.959-18.655,3.324-27.153 c-8.621-8.496-10.821,4.661-19.156,12.159c-4.736,4.261-9.458,5.122-12.658,5.086c-4.211,9.759-31.127,22.616-47.72,29.765 c-0.088-0.076-0.126-0.113-0.126-0.113s-6.998,1.912-26.091,1.912c-4.698-33.726,10.81-52.182,28.003-64.916 c0.737-0.55,1.511-1.074,2.323-1.562c7.011-4.312,16.646-6.834,26.893-7.296c-6.899-13.385-15.883-39.275,19.142-49.697 C811.744,108.303,825.115,168.756,807.934,177.665z"/><path fill="#008080" d="M1039.479,657.476l-63.729,24.615c-18.067-50.283,23.48-79.734,36.199-87.357L1039.479,657.476z"/><path fill="#ffe9de" d="M975.75,682.091l-75.387,29.115l-6.321-2.323c-8.711-34.976,6.435-68.165,26.564-73.375 c-9.695-10.585-19.405-47.622,17.631-58.242c-5.972-33.188,21.818-49.097,35.977-54.944c0,0,0,0,0.013,0l7.121,2.7l30.602,69.712 C999.23,602.356,957.683,631.808,975.75,682.091z"/><path fill="#ffe9de" d="M510.219,347.119l-0.013,0.026l-13.457-5.086c-1.949,2.398-3.837,4.785-5.661,7.173 c-55.731,72.661-56.98,140.213-53.168,172.827c1.149,9.771,2.735,16.406,3.46,19.106l-38.911-15.271 c-33.101-10.909-45.434-63.754-27.541-118.034c16.52-50.158,53.071-83.972,84.633-80.224L510.219,347.119z"/><path fill="#ffe9de" d="M718.825,668.357c-40.086-5.085-40.086-22.904-47.095-34.362c-6.997-11.458-23.542-61.741-26.092-82.097 c-2.549-20.368-5.085-47.096,0-77.648c2.037-12.196,4.725-21.868,7.224-29.927c12.408-6.234,44.308-17.957,73.187,7.26 c0.125,1.249,0.251,2.438,0.412,3.574c3.187,22.905,15.92,78.273,15.282,99.278c-0.637,21.005,0.025,43.285,0.025,43.285 s21.617,27.366,21.617,43.272s-8.909,8.909-12.732,5.085c-3.824-3.81-12.733-22.267-12.095-17.818 c0.637,4.461,5.097,17.381,8.907,22.692c3.824,5.311,14.937,9.506,19.4,11.148C771.094,663.655,758.925,673.457,718.825,668.357z"/><path fill="#000200" d="M726.049,451.583c-28.879-25.217-60.778-13.494-73.187-7.26c3.772-12.121,7.121-20.594,7.233-28.628 c0.164-11.321,0.038-49.669,0.013-63.803c-0.013-2.049-0.013-3.585-0.013-4.462v-0.536c0.013-4.398,54.92,5.162,54.92,5.162 l14.632,33.725c0,0-3.024,22.054-3.85,43.284C725.475,437.102,725.462,445.036,726.049,451.583z"/><path fill="#000200" d="M754.97,271.907c-6.224,0-10.272-1.549-10.62-1.688c-0.64-0.254-0.952-0.979-0.699-1.619 c0.254-0.641,0.979-0.953,1.619-0.705c0.17,0.067,17.062,6.449,35.491-8.253c0.539-0.43,1.325-0.342,1.755,0.197 s0.343,1.327-0.197,1.758C771.894,269.911,762.031,271.907,754.97,271.907z"/><path fill="#000200" d="M784.799,218.368c-0.427,0-0.842-0.218-1.075-0.611c-4.98-8.379,1.178-15.742,5.129-18.465 c0.569-0.392,1.345-0.248,1.736,0.318c0.392,0.568,0.25,1.346-0.315,1.737c-0.388,0.269-9.428,6.679-4.401,15.132 c0.353,0.594,0.157,1.36-0.436,1.714C785.236,218.312,785.017,218.368,784.799,218.368z"/><path fill="#000200" d="M1017.504,322.568c-2.146,0-4.541-1.026-6.438-2.933c-1.905-1.914-5.127-2.888-8.823-2.693 c-3.669,0.201-6.506,1.455-7.415,2.592c-0.433,0.539-1.218,0.626-1.756,0.196c-0.538-0.433-0.626-1.218-0.196-1.758 c1.513-1.889,5.221-3.307,9.23-3.523c2.597-0.139,7.436,0.116,10.73,3.424c2.019,2.028,4.895,2.788,6.411,1.701 c1.394-1.003,1.891-4.06-0.896-9.632c-5.677-11.352-23.896-4.989-24.079-4.924c-0.648,0.229-1.364-0.105-1.597-0.754 c-0.232-0.649,0.104-1.364,0.752-1.599c0.835-0.3,20.492-7.178,27.159,6.157c4.27,8.541,1.506,11.782,0.119,12.779 C1019.8,322.257,1018.688,322.568,1017.504,322.568z"/><path fill="#000200" d="M1016.819,307.049c-0.262,0-0.527-0.083-0.752-0.253c-0.552-0.418-0.659-1.201-0.243-1.751l5.526-7.302 c0.415-0.551,1.198-0.66,1.751-0.242c0.55,0.418,0.659,1.201,0.241,1.751l-5.526,7.301 C1017.57,306.878,1017.197,307.049,1016.819,307.049z"/><path fill="#000200" d="M1016.205,331.897c-2.042,0-3.63-0.691-4.731-2.061c-2.93-3.648-0.955-10.652-0.721-11.439 c0.198-0.661,0.89-1.037,1.554-0.84c0.661,0.196,1.037,0.891,0.842,1.553c-0.532,1.793-1.518,6.933,0.275,9.164 c0.688,0.855,1.764,1.217,3.307,1.104c6.518-0.474,17.792-17.139,21.587-23.521c0.352-0.594,1.117-0.787,1.713-0.435 c0.593,0.354,0.786,1.119,0.436,1.712c-1.465,2.464-14.565,24.084-23.554,24.738 C1016.671,331.89,1016.437,331.897,1016.205,331.897z"/><path fill="#000200" d="M1023.006,341.347c-3.937,0-6.4-0.991-7.501-3.008c-1.927-3.525,1.61-8.32,2.02-8.856 c0.42-0.548,1.202-0.653,1.75-0.233c0.55,0.416,0.654,1.201,0.236,1.749c-0.781,1.028-2.79,4.359-1.812,6.146 c0.751,1.372,3.403,1.938,7.466,1.608c14.354-1.184,26.493-21.974,26.614-22.184c0.344-0.6,1.106-0.806,1.707-0.459 c0.598,0.345,0.803,1.108,0.458,1.708c-0.522,0.902-12.927,22.136-28.573,23.425 C1024.531,341.313,1023.743,341.347,1023.006,341.347z"/><path fill="#000200" d="M1030.867,350.226c-3.488,0-5.668-0.932-6.483-2.772c-1.536-3.471,2.877-8.384,3.387-8.933 c0.468-0.505,1.258-0.535,1.765-0.069c0.506,0.469,0.537,1.261,0.068,1.768c-1.597,1.729-3.565,4.804-2.935,6.224 c0.378,0.854,1.953,1.318,4.38,1.284c10.637-0.11,22.55-15.542,22.669-15.697c0.42-0.55,1.203-0.652,1.751-0.234 c0.549,0.417,0.653,1.202,0.235,1.75c-0.518,0.676-12.772,16.558-24.63,16.681C1031.005,350.226,1030.936,350.226,1030.867,350.226 z"/><path fill="#000200" d="M1036.862,355.044c-1.456,0-3.435-0.292-4.326-1.725c-0.796-1.275-0.472-2.977,0.96-5.053 c0.391-0.566,1.17-0.711,1.736-0.318c0.569,0.391,0.712,1.169,0.32,1.738c-0.969,1.404-1.018,2.115-0.895,2.313 c0.309,0.498,2.11,0.656,3.449,0.457c0.679-0.1,1.318,0.371,1.42,1.055c0.1,0.682-0.371,1.317-1.053,1.418 C1038.218,354.966,1037.607,355.044,1036.862,355.044z"/><path fill="#000200" d="M938.237,578.516c-0.155,0-0.315-0.03-0.471-0.092l-204.839-83.328c-0.64-0.263-0.947-0.99-0.687-1.63 c0.26-0.639,0.987-0.947,1.629-0.688l204.838,83.328c0.641,0.262,0.948,0.99,0.688,1.63 C939.199,578.221,938.73,578.516,938.237,578.516z"/><path fill="#000200" d="M920.606,636.757c-0.144,0-0.29-0.025-0.434-0.077l-179.124-66.427c-0.646-0.24-0.976-0.959-0.736-1.605 c0.24-0.648,0.961-0.979,1.605-0.737l179.124,66.427c0.646,0.239,0.977,0.959,0.736,1.605 C921.592,636.445,921.115,636.757,920.606,636.757z"/><path fill="#000200" d="M647.894,463.978c-0.162,0-0.325-0.031-0.48-0.098l-171.99-71.916c-0.637-0.266-0.937-0.998-0.671-1.635 c0.267-0.635,0.998-0.937,1.634-0.67l171.991,71.914c0.637,0.268,0.938,0.998,0.669,1.635 C648.847,463.688,648.382,463.978,647.894,463.978z"/><path fill="#000200" d="M644.399,542.415c-0.149,0-0.303-0.026-0.451-0.085l-191.822-74.547c-0.643-0.25-0.962-0.975-0.712-1.617 c0.25-0.644,0.973-0.962,1.617-0.712l191.822,74.547c0.644,0.249,0.963,0.975,0.711,1.617 C645.373,542.112,644.9,542.415,644.399,542.415z"/><path fill="#FFF" d="M725.798,430.315c-0.681,0-1.236-0.547-1.249-1.229c-0.026-1.661-0.556-40.813,7.847-52.104 c0.413-0.554,1.193-0.668,1.748-0.258c0.554,0.412,0.668,1.195,0.257,1.75c-7.901,10.615-7.358,50.173-7.353,50.57 c0.013,0.69-0.539,1.259-1.229,1.27C725.813,430.315,725.807,430.315,725.798,430.315z"/><path fill="#FFF" d="M861.892,477.86c-0.023,0-0.047-0.001-0.07-0.001c-0.689-0.038-1.218-0.627-1.179-1.315 c0.047-0.856,4.51-85.75-10.952-112.604c-0.345-0.598-0.138-1.362,0.46-1.707c0.599-0.345,1.361-0.138,1.706,0.459 c15.831,27.497,11.475,110.469,11.279,113.987C863.101,477.345,862.548,477.86,861.892,477.86z"/><path fill="#ffe9de" d="M695.825,241.274c-0.642,0-1.187-0.491-1.242-1.144c-0.073-0.842-1.662-20.847,9.512-40.43 c0.342-0.601,1.105-0.809,1.705-0.466c0.599,0.342,0.808,1.105,0.466,1.705c-10.774,18.881-9.21,38.777-9.194,38.977 c0.061,0.687-0.449,1.294-1.137,1.352C695.897,241.271,695.862,241.274,695.825,241.274z"/><path fill="#ffe9de" d="M705.178,237.942c-0.661,0-1.212-0.52-1.247-1.188c-0.04-0.866-0.962-21.341,5.828-32.372 c0.36-0.588,1.131-0.772,1.719-0.41c0.589,0.361,0.771,1.131,0.409,1.719c-6.389,10.38-5.469,30.736-5.459,30.941 c0.034,0.688-0.498,1.273-1.186,1.308C705.22,237.94,705.2,237.942,705.178,237.942z"/><path fill="#ffe9de" d="M794.861,173.797c-0.397,0-0.791-0.19-1.032-0.544c-0.389-0.571-0.242-1.348,0.327-1.738 c19.522-13.338-0.161-46.119-0.36-46.449c-0.36-0.59-0.175-1.359,0.414-1.718c0.591-0.358,1.358-0.173,1.718,0.415 c0.871,1.43,21.1,35.154-0.361,49.817C795.351,173.727,795.105,173.797,794.861,173.797z"/><path fill="#ffe9de" d="M783.099,173.797c-0.64,0-1.184-0.487-1.244-1.135c-0.063-0.688,0.443-1.296,1.13-1.359 c3.491-0.319,6.135-1.757,8.076-4.392c6.169-8.366,2.615-25.587,2.578-25.759c-0.144-0.677,0.288-1.34,0.963-1.481 c0.684-0.146,1.339,0.287,1.481,0.962c0.16,0.751,3.823,18.484-3.008,27.759c-2.357,3.197-5.676,5.016-9.862,5.4 C783.174,173.794,783.135,173.797,783.099,173.797z"/><path fill="#FFF" d="M661.84,785.53c-10.807,0.001-29.567-22.297-43.323-38.648c-5.206-6.187-9.7-11.529-12.091-13.578 c-0.524-0.45-0.583-1.239-0.134-1.762c0.448-0.525,1.236-0.583,1.762-0.137c2.543,2.184,6.883,7.338,12.374,13.867 c12.686,15.077,31.77,37.758,41.361,37.761c0.133,0,0.263-0.005,0.395-0.015c1.443-0.098,2.565-0.812,3.431-2.182 c9.675-15.318,3.714-147.643,3.651-148.979c-0.032-0.688,0.503-1.273,1.191-1.305c0.674-0.031,1.273,0.501,1.305,1.191 c0.253,5.48,6.056,134.45-4.034,150.426c-1.303,2.063-3.111,3.188-5.375,3.342C662.185,785.524,662.014,785.53,661.84,785.53z"/><path fill="#FFF" d="M566.705,712.456c-0.69,0-1.249-0.561-1.249-1.25v-7.143l-12.541,3.915 c-0.509,0.159-1.063-0.022-1.378-0.452c-0.316-0.43-0.326-1.01-0.024-1.449l8.55-12.413c-4.078-2.14-16.439-9.026-18.687-15.019 c-0.242-0.646,0.086-1.367,0.73-1.608c0.647-0.241,1.367,0.085,1.609,0.73c1.907,5.087,14.172,12.058,18.738,14.313 c0.324,0.161,0.563,0.455,0.653,0.807c0.093,0.351,0.027,0.724-0.179,1.024l-7.305,10.604l10.708-3.344 c0.378-0.117,0.792-0.05,1.112,0.187c0.32,0.235,0.511,0.609,0.511,1.006v8.842C567.955,711.896,567.395,712.456,566.705,712.456z"/><path fill="#FFF" d="M548.491,639.661c-0.457,0-0.897-0.251-1.117-0.686c-5.599-11.104-88.531-43.756-120.013-55.4 c-0.648-0.241-0.979-0.959-0.74-1.606c0.24-0.647,0.96-0.976,1.607-0.739c4.658,1.725,114.19,42.373,121.377,56.62 c0.312,0.616,0.063,1.368-0.553,1.679C548.872,639.619,548.68,639.661,548.491,639.661z"/><path fill="#FFF" d="M938.237,966.627c-0.689,0-1.25-0.559-1.25-1.249v-6.52h-10.405c-0.691,0-1.25-0.56-1.25-1.25V944.31 l-14.802-23.422c-0.369-0.584-0.196-1.356,0.388-1.725c0.582-0.37,1.356-0.194,1.725,0.389l14.995,23.729 c0.125,0.201,0.193,0.431,0.193,0.668v12.411h10.406c0.691,0,1.25,0.56,1.25,1.249v7.77 C939.487,966.068,938.929,966.627,938.237,966.627z"/><path fill="#FFF" d="M894.653,912.704c-0.37,0-0.736-0.164-0.98-0.481c-0.542-0.701-62.978-109.123-63.845-112.949 c-0.153-0.673,0.268-1.342,0.941-1.495c0.652-0.143,1.304,0.246,1.48,0.884c1.229,3.239,60.89,108.665,63.403,112.036 c0.41,0.55,0.305,1.334-0.241,1.75C895.184,912.621,894.918,912.704,894.653,912.704z"/><path fill="#000200" d="M737.035,260.407c-11.241,0-20.386-9.145-20.386-20.383c0-11.242,9.145-20.385,20.386-20.385 c11.238,0,20.384,9.143,20.384,20.385C757.419,251.263,748.273,260.407,737.035,260.407z M737.035,222.138 c-9.862,0-17.887,8.024-17.887,17.887s8.024,17.885,17.887,17.885c9.861,0,17.884-8.022,17.884-17.885 S746.896,222.138,737.035,222.138z"/><path fill="#c2232a" d="M750.777,263.825c-3.849,0.914-15.087-1.536-11.131,2.694c2.671,2.167,0.617,2.724,3.318,2.485 C745.681,268.769,751.263,265.737,750.777,263.825"/><path fill="#000200" d="M454.648,841.08c-12.258,6.81-28.164,12.259-28.164,12.259s3.637,4.998,14.994,4.998 c11.359,0,15.445,17.27,12.721,15.908c-2.723-1.363-13.17,0-22.717,2.723c-9.534,2.724-15.895,8.172-24.991,14.082 c-9.085,5.912-30.427,40.887-30.427,40.887s0,0,14.532,4.998c14.533,4.998,29.979-2.273,43.611-7.272 c13.633-4.998,29.076-20.893,29.527-11.358c0.461,9.547-1.025,15.457-8.172,19.543c8.633-3.637,26.352-20.904,23.166,2.162 c-8.172,40.322-61.329,42.81-82.684,42.81c-21.355,0-41.411-14.532-41.411-14.532s-17.195,7.723-41.723,24.529 c-24.529,16.807-73.6,22.716-73.6,22.716s-46.797,53.607-99.042,21.344c-5.447,0.913-25.89,24.08-28.164,32.714 c-2.274,8.635,10.909,17.719-4.548,18.631c-15.445,0.9-17.707-10.445-21.343-24.079c-3.636-13.632,20.443-34.525,20.443-34.525 s-15.444,0.449-24.528,3.175c-9.097,2.723-16.357,19.542-21.355,9.083c-4.998-10.445,8.622-23.167,20.443-30.438 c11.809-7.261,36.8-14.982,39.599-3.624c2.812,11.346,15.82,3.624,15.82,3.624s2.274,1.824-1.813-18.619 c-4.086-20.443,14.532-39.986,14.532-39.986s-5.897-2.724-17.256,1.361c-11.359,4.1-32.714-7.259-29.99-7.259 s23.166-10.447,16.357-9.997c-6.811,0.449-20.443-4.998-25.441-10.909c-3.087-3.636,4.023-3.648,9.934-3.136 c-5.21-1-11.958-3.398-17.394-13.071c-7.498-13.319,8.334-3.323,8.334-3.323s8.322,4.161-9.997-11.671 c-18.331-15.819-4.173-34.15-4.173-34.15s2.499,14.994,35.825,45.821c33.326,30.814,53.319,29.989,113.299,33.313 c59.979,3.337,78.298-36.649,96.629-50.808c18.331-14.17,29.152-51.656,29.152-51.656s-27.49,14.169-38.737,19.805 c-11.246,5.636-15.407-3.137-9.571-13.133c5.823-9.996,19.156-50.82,19.156-50.82c0.937-2.85,36.487-7.997,42.398-2.099 c5.911,5.91,29.527,22.717,44.073,24.54c14.532,1.813,45.421-15.444,58.144-18.63c12.719-3.175,12.27,11.358,9.008,21.354 C475.854,828.358,466.92,834.258,454.648,841.08z"/><path fill="#000200" d="M108.056,923.753c-1.375-0.301-3.124-0.477-5.099-0.863c3.674,0.324,6.873,0.863,6.873,0.863"/><path fill="#FFF" d="M110.742,1027.054c-0.071,0-0.143-0.011-0.213-0.037c-0.322-0.117-0.49-0.47-0.375-0.792 c0.08-0.226,2.087-5.503,14.15-6.834c10.519-1.159,12-5.929,14.69-14.586c0.219-0.706,0.445-1.434,0.684-2.185 c0.105-0.328,0.456-0.508,0.785-0.406c0.328,0.105,0.51,0.457,0.406,0.785c-0.238,0.749-0.463,1.474-0.682,2.177 c-2.658,8.556-4.413,14.208-15.747,15.457c-11.183,1.232-13.092,5.967-13.11,6.015 C111.235,1026.898,110.996,1027.054,110.742,1027.054z"/><path fill="#FFF" d="M239.311,1016.153c-0.12,0-0.239-0.034-0.346-0.105c-0.288-0.191-0.365-0.579-0.173-0.865 c7.083-10.627,7.615-49.695,7.62-50.089c0.003-0.347,0.282-0.637,0.631-0.617c0.345,0.004,0.622,0.287,0.618,0.632 c-0.02,1.623-0.542,39.834-7.83,50.767C239.711,1016.056,239.513,1016.153,239.311,1016.153z"/><path fill="#FFF" d="M416.453,944.856c-30.324,0-47.926-18.644-48.123-18.856c-0.233-0.253-0.218-0.647,0.035-0.882 s0.648-0.222,0.883,0.035c0.216,0.232,22.035,23.311,58.958,17.524c22.746-3.562,28.607-5.343,30.098-6.063 c-0.127-0.137-0.193-0.331-0.16-0.531c0.057-0.338,0.371-0.574,0.719-0.514c0.668,0.111,1.084,0.484,1.082,0.974 c-0.004,0.851-0.012,2.431-31.545,7.37C424.227,944.567,420.24,944.856,416.453,944.856z"/><path fill="#FFF" d="M352.791,843.659c-0.069,0-0.141-0.013-0.21-0.037c-0.325-0.116-0.494-0.473-0.378-0.798 c0.812-2.271,6.651-14.392,8.421-18.051c7.632-15.782,7.646-15.761,8.271-15.665c0.299,0.053,0.52,0.317,0.52,0.621 c0,0.165-0.063,0.313-0.167,0.424c-0.907,1.557-14.56,29.432-15.869,33.091C353.289,843.5,353.047,843.659,352.791,843.659z"/><path fill="#FFF" d="M96.153,892.528c-0.154,0-0.307-0.056-0.428-0.17c-6.394-6.018-14.449-20.962-14.789-21.596 c-0.163-0.304-0.049-0.683,0.255-0.846c0.305-0.162,0.684-0.049,0.846,0.255c0.083,0.153,8.298,15.398,14.544,21.277 c0.252,0.236,0.263,0.632,0.027,0.883C96.485,892.463,96.319,892.528,96.153,892.528z"/><path fill="#FFF" d="M116.836,912.085c-0.072,0-0.146-0.013-0.217-0.04c-7.881-2.936-13.927-11.892-14.181-12.272 c-0.191-0.286-0.114-0.675,0.173-0.866c0.287-0.192,0.674-0.115,0.867,0.173c0.06,0.089,6.079,9.002,13.577,11.794 c0.323,0.121,0.488,0.481,0.368,0.805C117.329,911.93,117.09,912.085,116.836,912.085z"/><path fill="#FFF" d="M101.417,904.188c-0.11,0-0.221-0.028-0.321-0.089c-3.812-2.287-12.398-12.857-12.762-13.307 c-0.217-0.268-0.176-0.66,0.092-0.879c0.269-0.218,0.661-0.175,0.879,0.094c0.087,0.106,8.811,10.846,12.433,13.021 c0.296,0.177,0.392,0.561,0.215,0.856C101.836,904.079,101.63,904.188,101.417,904.188z"/><path fill="#FFF" d="M101.418,918.102c-0.042,0-0.084-0.005-0.128-0.014c-9.244-1.927-12.897-10.537-13.048-10.903 c-0.132-0.318,0.019-0.684,0.338-0.815c0.321-0.128,0.684,0.021,0.816,0.338c0.035,0.085,3.565,8.368,12.148,10.157 c0.337,0.07,0.555,0.401,0.484,0.738C101.968,917.898,101.708,918.102,101.418,918.102z"/><path fill="#FFF" d="M115.569,933.847c-7.308,0-14.118-4.322-14.49-4.563c-0.29-0.187-0.374-0.573-0.187-0.861 c0.187-0.292,0.574-0.377,0.864-0.188c0.113,0.073,11.469,7.272,20.065,2.974c0.308-0.154,0.684-0.029,0.838,0.28 c0.154,0.308,0.029,0.685-0.279,0.837C120.183,933.426,117.852,933.847,115.569,933.847z"/><path fill="#FFF" d="M124.277,952.712c-4.702,0-7.588-1.865-7.787-1.997c-0.287-0.192-0.364-0.578-0.174-0.866 c0.19-0.286,0.578-0.365,0.866-0.176c0.311,0.205,7.724,4.939,18.5-1.887c0.292-0.181,0.678-0.098,0.862,0.194 c0.185,0.291,0.098,0.677-0.193,0.861C131.651,951.819,127.529,952.712,124.277,952.712z"/><path fill="#FFF" d="M228.154,1016.153c-0.155,0-0.31-0.058-0.431-0.172c-0.25-0.239-0.258-0.635-0.021-0.884 c9.507-9.973,10.973-27.915,10.986-28.097c0.027-0.342,0.328-0.6,0.67-0.574c0.344,0.026,0.603,0.326,0.576,0.671 c-0.057,0.753-1.509,18.562-11.328,28.862C228.483,1016.089,228.319,1016.153,228.154,1016.153z"/><path fill="#FFF" d="M180.769,1042.957c-0.326,0-0.601-0.255-0.623-0.585c-0.023-0.344,0.238-0.641,0.583-0.664 c0.171-0.01,17.27-1.253,30.861-12.272c0.269-0.218,0.662-0.175,0.878,0.093c0.218,0.269,0.177,0.661-0.091,0.879 c-13.909,11.275-31.393,12.538-31.566,12.548C180.796,1042.957,180.782,1042.957,180.769,1042.957z"/><path fill="#FFF" d="M205.59,1028.666c-0.191,0-0.377-0.087-0.5-0.25c-0.208-0.276-0.151-0.667,0.125-0.875 c0.317-0.236,1.091-0.716,2.263-1.442c4.361-2.699,14.575-9.022,17.524-13.446c0.191-0.288,0.578-0.366,0.866-0.173 c0.288,0.191,0.365,0.58,0.173,0.865c-3.1,4.65-13.1,10.842-17.906,13.817c-1.061,0.656-1.899,1.175-2.171,1.38 C205.852,1028.626,205.721,1028.666,205.59,1028.666z"/><path fill="#FFF" d="M109.831,1066.649c-0.01,0-0.02,0-0.029,0c-0.345-0.017-0.611-0.309-0.595-0.653 c0.142-3.054,6.364-15.402,7.073-16.801c0.155-0.309,0.532-0.429,0.839-0.275c0.309,0.156,0.431,0.533,0.275,0.841 c-1.894,3.731-6.83,13.936-6.939,16.293C110.439,1066.39,110.163,1066.649,109.831,1066.649z"/><path fill="#FFF" d="M76.221,1030.546c-0.071,0-0.143-0.012-0.213-0.037c-0.324-0.117-0.492-0.476-0.374-0.801 c1.599-4.395,18.553-5.556,20.48-5.674c0.358-0.026,0.641,0.24,0.662,0.585c0.021,0.345-0.241,0.641-0.585,0.662 c-6.967,0.427-18.389,2.122-19.383,4.854C76.716,1030.39,76.477,1030.546,76.221,1030.546z"/><path fill="#FFF" d="M217.625,1027.914c-0.203,0-0.4-0.097-0.521-0.277c-0.191-0.287-0.114-0.676,0.173-0.867 c0.896-0.598,5.956-5.05,7.829-6.717c0.258-0.228,0.653-0.206,0.882,0.054c0.229,0.258,0.207,0.652-0.052,0.882 c-0.278,0.246-6.814,6.053-7.966,6.821C217.864,1027.88,217.743,1027.914,217.625,1027.914z"/><path fill="#FFF" d="M229.658,1001.913c-0.156,0-0.311-0.057-0.432-0.173c-0.249-0.237-0.258-0.633-0.02-0.884 c0.677-0.972,2.523-12.345,3.907-22.541c0.047-0.342,0.363-0.589,0.704-0.534c0.342,0.047,0.582,0.361,0.534,0.703 c-0.697,5.14-3.065,22.006-4.242,23.236C229.987,1001.85,229.822,1001.913,229.658,1001.913z"/><path fill="#FFF" d="M270.381,942.17c-0.341,0-0.62-0.274-0.625-0.616c-0.003-0.345,0.272-0.628,0.616-0.634 c0.035,0,3.606-0.092,9.388-3.144c0.305-0.16,0.683-0.045,0.845,0.261c0.161,0.306,0.043,0.684-0.261,0.845 c-6.081,3.209-9.8,3.287-9.956,3.288C270.385,942.17,270.383,942.17,270.381,942.17z"/><path fill="#FFF" d="M287.573,935.53c-0.11,0-0.221-0.028-0.32-0.09c-0.295-0.176-0.392-0.556-0.216-0.852 c0.28-0.471,1.069-1.035,2.685-2.166c3.006-2.105,8.037-5.628,10.077-9.809c0.151-0.308,0.526-0.434,0.835-0.286 c0.31,0.151,0.439,0.524,0.288,0.837c-2.181,4.468-7.378,8.107-10.483,10.281c-1.015,0.711-2.166,1.517-2.327,1.783 C287.992,935.423,287.784,935.53,287.573,935.53z"/><path fill="#FFF" d="M313.897,834.614c-0.146,0-0.293-0.051-0.411-0.155c-0.259-0.227-0.286-0.622-0.058-0.881 c5.697-6.501,11.467-27.743,11.525-27.956c0.089-0.335,0.437-0.53,0.766-0.44c0.333,0.089,0.531,0.432,0.441,0.764 c-0.238,0.886-5.904,21.737-11.792,28.455C314.245,834.543,314.071,834.614,313.897,834.614z"/><path fill="#FFF" d="M317.515,853.492c-3.365,0-6.678-1.069-8.897-2.844c-0.269-0.216-0.313-0.608-0.098-0.879 c0.216-0.268,0.608-0.311,0.879-0.097c3.384,2.709,11.016,4.021,15.754,0.012c0.263-0.223,0.657-0.189,0.88,0.072 c0.223,0.264,0.19,0.658-0.074,0.881C323.608,852.628,320.541,853.492,317.515,853.492z"/><path fill="#FFF" d="M316.685,850.837c-0.836,0-1.592-0.269-2.254-0.804c-2.395-1.933-2.651-6.765-2.662-6.97 c-0.016-0.344,0.25-0.637,0.595-0.652c0.318-0.057,0.637,0.247,0.654,0.593c0.002,0.045,0.24,4.479,2.198,6.059 c0.562,0.45,1.201,0.61,1.963,0.481c0.34-0.06,0.662,0.174,0.719,0.514c0.057,0.342-0.173,0.661-0.514,0.72 C317.146,850.817,316.913,850.837,316.685,850.837z"/><path fill="#FFF" d="M480.271,810.367c-9.965,0-13.635-12.203-13.67-12.328c-0.098-0.331,0.094-0.678,0.424-0.773 c0.334-0.1,0.678,0.092,0.775,0.424c0.033,0.118,3.602,11.9,13.086,11.411c0.332-0.035,0.641,0.244,0.658,0.589 s-0.246,0.64-0.59,0.658C480.725,810.361,480.496,810.367,480.271,810.367z"/><path fill="#FFF" d="M365.795,935.534c-0.088,0-0.178-0.018-0.264-0.059c-4.525-2.12-7.275-4.492-8.172-7.05 c-0.642-1.829-0.047-3.073-0.021-3.125c0.152-0.309,0.527-0.436,0.836-0.284c0.307,0.15,0.435,0.521,0.288,0.83 c-0.032,0.072-1.722,4.132,7.599,8.496c0.312,0.146,0.447,0.52,0.3,0.831C366.255,935.401,366.03,935.534,365.795,935.534z"/><path fill="#FFF" d="M395.13,944.868c-0.021,0-0.042-0.002-0.062-0.002c-10.91-1.065-19.712-5.943-19.801-5.992 c-0.3-0.17-0.408-0.55-0.239-0.851c0.168-0.303,0.548-0.408,0.85-0.24c0.085,0.049,8.671,4.802,19.311,5.838 c0.344,0.034,0.594,0.339,0.561,0.684C395.72,944.626,395.447,944.868,395.13,944.868z"/><path fill="#FFF" d="M375.573,948.938c-8.953,0-12.197-7.068-12.229-7.139c-0.14-0.315,0.002-0.684,0.317-0.824 c0.313-0.143,0.683,0,0.825,0.314c0.117,0.262,2.968,6.398,11.087,6.398c0.345,0,0.625,0.28,0.625,0.626 C376.198,948.659,375.918,948.938,375.573,948.938z"/></svg>